G04*
G04 #@! TF.GenerationSoftware,Altium Limited,Altium Designer,20.1.10 (176)*
G04*
G04 Layer_Color=8388736*
%FSLAX24Y24*%
%MOIN*%
G70*
G04*
G04 #@! TF.SameCoordinates,434D76CE-413E-4709-B596-876F764042CA*
G04*
G04*
G04 #@! TF.FilePolarity,Negative*
G04*
G01*
G75*
%ADD14R,0.0680X0.0480*%
%ADD15R,0.0970X0.0930*%
%ADD16R,0.0480X0.0680*%
G04:AMPARAMS|DCode=17|XSize=72.5mil|YSize=19.5mil|CornerRadius=9.7mil|HoleSize=0mil|Usage=FLASHONLY|Rotation=0.000|XOffset=0mil|YOffset=0mil|HoleType=Round|Shape=RoundedRectangle|*
%AMROUNDEDRECTD17*
21,1,0.0725,0.0000,0,0,0.0*
21,1,0.0530,0.0195,0,0,0.0*
1,1,0.0195,0.0265,0.0000*
1,1,0.0195,-0.0265,0.0000*
1,1,0.0195,-0.0265,0.0000*
1,1,0.0195,0.0265,0.0000*
%
%ADD17ROUNDEDRECTD17*%
%ADD18R,0.0725X0.0195*%
%ADD19C,0.2480*%
%ADD20C,0.1025*%
%ADD21R,0.1025X0.1025*%
%ADD22R,0.0582X0.0582*%
%ADD23C,0.0582*%
%ADD24C,0.0580*%
D14*
X33150Y35750D02*
D03*
Y36550D02*
D03*
X30750Y35750D02*
D03*
Y36550D02*
D03*
D15*
X28850Y37985D02*
D03*
Y39915D02*
D03*
X26650Y37971D02*
D03*
Y39900D02*
D03*
D16*
X32050Y34350D02*
D03*
X32850D02*
D03*
X32050Y31650D02*
D03*
X32850D02*
D03*
D17*
X32850Y33384D02*
D03*
Y33128D02*
D03*
Y32872D02*
D03*
Y32616D02*
D03*
X31150D02*
D03*
Y32872D02*
D03*
Y33128D02*
D03*
X32950Y30484D02*
D03*
Y30228D02*
D03*
Y29972D02*
D03*
Y29716D02*
D03*
X31250D02*
D03*
Y29972D02*
D03*
Y30228D02*
D03*
D18*
X31150Y33384D02*
D03*
X31250Y30484D02*
D03*
D19*
X27500Y26250D02*
D03*
D20*
X23950Y40450D02*
D03*
Y38450D02*
D03*
Y36450D02*
D03*
Y34450D02*
D03*
Y32450D02*
D03*
D21*
Y30450D02*
D03*
D22*
X26650Y34400D02*
D03*
X26600Y30900D02*
D03*
D23*
X28028Y34400D02*
D03*
X27978Y30900D02*
D03*
D24*
X31950Y35750D02*
D03*
X32150Y37250D02*
D03*
X31200Y34350D02*
D03*
M02*
