G04*
G04 #@! TF.GenerationSoftware,Altium Limited,Altium Designer,20.1.10 (176)*
G04*
G04 Layer_Physical_Order=2*
G04 Layer_Color=16711680*
%FSLAX24Y24*%
%MOIN*%
G70*
G04*
G04 #@! TF.SameCoordinates,434D76CE-413E-4709-B596-876F764042CA*
G04*
G04*
G04 #@! TF.FilePolarity,Positive*
G04*
G01*
G75*
%ADD10C,0.0100*%
%ADD29C,0.2400*%
%ADD30C,0.0945*%
%ADD31R,0.0945X0.0945*%
%ADD32R,0.0502X0.0502*%
%ADD33C,0.0502*%
%ADD34C,0.0500*%
G36*
X35000Y24000D02*
X20000D01*
Y41850D01*
X35000D01*
Y24000D01*
D02*
G37*
%LPC*%
G36*
X23950Y39027D02*
X23801Y39008D01*
X23661Y38950D01*
X23542Y38858D01*
X23450Y38739D01*
X23392Y38599D01*
X23373Y38450D01*
X23392Y38301D01*
X23450Y38161D01*
X23542Y38042D01*
X23661Y37950D01*
X23801Y37892D01*
X23950Y37873D01*
X24099Y37892D01*
X24239Y37950D01*
X24358Y38042D01*
X24450Y38161D01*
X24508Y38301D01*
X24527Y38450D01*
X24508Y38599D01*
X24450Y38739D01*
X24358Y38858D01*
X24239Y38950D01*
X24099Y39008D01*
X23950Y39027D01*
D02*
G37*
G36*
Y37027D02*
X23801Y37008D01*
X23661Y36950D01*
X23542Y36858D01*
X23450Y36739D01*
X23392Y36599D01*
X23373Y36450D01*
X23392Y36301D01*
X23450Y36161D01*
X23542Y36042D01*
X23661Y35950D01*
X23801Y35892D01*
X23950Y35873D01*
X24099Y35892D01*
X24239Y35950D01*
X24358Y36042D01*
X24450Y36161D01*
X24508Y36301D01*
X24527Y36450D01*
X24508Y36599D01*
X24450Y36739D01*
X24358Y36858D01*
X24239Y36950D01*
X24099Y37008D01*
X23950Y37027D01*
D02*
G37*
G36*
X32000Y36096D02*
Y35800D01*
X32296D01*
X32291Y35841D01*
X32256Y35927D01*
X32200Y36000D01*
X32127Y36056D01*
X32041Y36091D01*
X32000Y36096D01*
D02*
G37*
G36*
X31900D02*
X31859Y36091D01*
X31773Y36056D01*
X31700Y36000D01*
X31644Y35927D01*
X31609Y35841D01*
X31604Y35800D01*
X31900D01*
Y36096D01*
D02*
G37*
G36*
X32296Y35700D02*
X32000D01*
Y35404D01*
X32041Y35409D01*
X32127Y35444D01*
X32200Y35500D01*
X32256Y35573D01*
X32291Y35659D01*
X32296Y35700D01*
D02*
G37*
G36*
X31900D02*
X31604D01*
X31609Y35659D01*
X31644Y35573D01*
X31700Y35500D01*
X31773Y35444D01*
X31859Y35409D01*
X31900Y35404D01*
Y35700D01*
D02*
G37*
G36*
X32150Y37603D02*
X32059Y37591D01*
X31973Y37556D01*
X31900Y37500D01*
X31844Y37427D01*
X31809Y37341D01*
X31797Y37250D01*
X31809Y37159D01*
X31844Y37073D01*
X31900Y37000D01*
X31973Y36944D01*
X32059Y36909D01*
X32150Y36897D01*
X32241Y36909D01*
X32327Y36944D01*
X32334Y36950D01*
X32747Y36537D01*
Y35413D01*
X31837Y34503D01*
X31515D01*
X31506Y34527D01*
X31450Y34600D01*
X31377Y34656D01*
X31291Y34691D01*
X31200Y34703D01*
X31109Y34691D01*
X31023Y34656D01*
X30950Y34600D01*
X30894Y34527D01*
X30859Y34441D01*
X30847Y34350D01*
X30859Y34259D01*
X30894Y34173D01*
X30950Y34100D01*
X31023Y34044D01*
X31109Y34009D01*
X31200Y33997D01*
X31291Y34009D01*
X31377Y34044D01*
X31450Y34100D01*
X31506Y34173D01*
X31515Y34197D01*
X31900D01*
X31959Y34209D01*
X32008Y34242D01*
X33008Y35242D01*
X33041Y35291D01*
X33053Y35350D01*
Y36600D01*
X33041Y36659D01*
X33008Y36708D01*
X32499Y37218D01*
X32503Y37250D01*
X32491Y37341D01*
X32456Y37427D01*
X32400Y37500D01*
X32327Y37556D01*
X32241Y37591D01*
X32150Y37603D01*
D02*
G37*
G36*
X27001Y34751D02*
X26299D01*
Y34049D01*
X27001D01*
Y34751D01*
D02*
G37*
G36*
X23950Y35027D02*
X23801Y35008D01*
X23661Y34950D01*
X23542Y34858D01*
X23450Y34739D01*
X23392Y34599D01*
X23373Y34450D01*
X23392Y34301D01*
X23450Y34161D01*
X23542Y34042D01*
X23661Y33950D01*
X23801Y33892D01*
X23950Y33873D01*
X24099Y33892D01*
X24239Y33950D01*
X24358Y34042D01*
X24450Y34161D01*
X24508Y34301D01*
X24527Y34450D01*
X24508Y34599D01*
X24450Y34739D01*
X24358Y34858D01*
X24239Y34950D01*
X24099Y35008D01*
X23950Y35027D01*
D02*
G37*
G36*
Y33027D02*
X23801Y33008D01*
X23661Y32950D01*
X23542Y32858D01*
X23450Y32739D01*
X23392Y32599D01*
X23373Y32450D01*
X23392Y32301D01*
X23450Y32161D01*
X23542Y32042D01*
X23661Y31950D01*
X23801Y31892D01*
X23950Y31873D01*
X24099Y31892D01*
X24239Y31950D01*
X24358Y32042D01*
X24450Y32161D01*
X24508Y32301D01*
X24527Y32450D01*
X24508Y32599D01*
X24450Y32739D01*
X24358Y32858D01*
X24239Y32950D01*
X24099Y33008D01*
X23950Y33027D01*
D02*
G37*
G36*
X26951Y31251D02*
X26249D01*
Y30549D01*
X26951D01*
Y31251D01*
D02*
G37*
G36*
X24522Y31022D02*
X23378D01*
Y29878D01*
X24522D01*
Y31022D01*
D02*
G37*
G36*
X27500Y27554D02*
X27296Y27538D01*
X27097Y27490D01*
X26908Y27412D01*
X26734Y27305D01*
X26578Y27172D01*
X26445Y27016D01*
X26338Y26842D01*
X26260Y26653D01*
X26212Y26454D01*
X26196Y26250D01*
X26212Y26046D01*
X26260Y25847D01*
X26338Y25658D01*
X26445Y25484D01*
X26578Y25328D01*
X26734Y25195D01*
X26908Y25088D01*
X27097Y25010D01*
X27296Y24962D01*
X27500Y24946D01*
X27704Y24962D01*
X27903Y25010D01*
X28092Y25088D01*
X28266Y25195D01*
X28422Y25328D01*
X28555Y25484D01*
X28662Y25658D01*
X28740Y25847D01*
X28788Y26046D01*
X28804Y26250D01*
X28788Y26454D01*
X28740Y26653D01*
X28662Y26842D01*
X28555Y27016D01*
X28422Y27172D01*
X28266Y27305D01*
X28092Y27412D01*
X27903Y27490D01*
X27704Y27538D01*
X27500Y27554D01*
D02*
G37*
%LPD*%
D10*
X32150Y37250D02*
X32250D01*
X32900Y36600D01*
Y35350D02*
Y36600D01*
X31900Y34350D02*
X32900Y35350D01*
X31200Y34350D02*
X31900D01*
X31183Y34333D02*
X31200Y34350D01*
D29*
X27500Y26250D02*
D03*
D30*
X23950Y40450D02*
D03*
Y38450D02*
D03*
Y36450D02*
D03*
Y34450D02*
D03*
Y32450D02*
D03*
D31*
Y30450D02*
D03*
D32*
X26650Y34400D02*
D03*
X26600Y30900D02*
D03*
D33*
X28028Y34400D02*
D03*
X27978Y30900D02*
D03*
D34*
X31950Y35750D02*
D03*
X32150Y37250D02*
D03*
X31200Y34350D02*
D03*
M02*
