G04*
G04 #@! TF.GenerationSoftware,Altium Limited,Altium Designer,20.1.10 (176)*
G04*
G04 Layer_Color=16711935*
%FSLAX24Y24*%
%MOIN*%
G70*
G04*
G04 #@! TF.SameCoordinates,434D76CE-413E-4709-B596-876F764042CA*
G04*
G04*
G04 #@! TF.FilePolarity,Positive*
G04*
G01*
G75*
%ADD10C,0.0100*%
%ADD35C,0.0000*%
%ADD36C,0.0060*%
D10*
X28300Y27200D02*
Y27600D01*
X27500Y27400D02*
Y27590D01*
X26500Y27500D02*
X27500D01*
X28300D02*
X29300D01*
X26900Y27700D02*
X27500Y27500D01*
X26900Y27300D02*
X27500Y27500D01*
X28300D02*
X28900Y27300D01*
X28300Y27500D02*
X28900Y27700D01*
X25050Y23750D02*
X35150D01*
X25050Y26250D02*
X26160D01*
X25150D02*
Y27250D01*
Y22750D02*
Y23750D01*
Y26250D02*
X25350Y26850D01*
X24950D02*
X25150Y26250D01*
X24950Y23150D02*
X25150Y23750D01*
X25350Y23150D01*
X35250Y20650D02*
Y23650D01*
X19750Y20650D02*
Y23650D01*
X29799Y20750D02*
X35250D01*
X19750D02*
X24881D01*
X34650Y20950D02*
X35250Y20750D01*
X34650Y20550D02*
X35250Y20750D01*
X19750D02*
X20350Y20550D01*
X19750Y20750D02*
X20350Y20950D01*
X17950Y42100D02*
X19650D01*
X17950Y23750D02*
X19650D01*
X18050Y35224D02*
Y42100D01*
Y23750D02*
Y30306D01*
X17850Y41500D02*
X18050Y42100D01*
X18250Y41500D01*
X18050Y23750D02*
X18250Y24350D01*
X17850D02*
X18050Y23750D01*
D35*
X19750D02*
X35250D01*
Y42100D01*
X19750D02*
X35250D01*
X19750Y23750D02*
Y42100D01*
D36*
X25641Y28720D02*
X25741Y28820D01*
X25941D01*
X26041Y28720D01*
Y28620D01*
X25941Y28520D01*
X26041Y28420D01*
Y28320D01*
X25941Y28220D01*
X25741D01*
X25641Y28320D01*
Y28420D01*
X25741Y28520D01*
X25641Y28620D01*
Y28720D01*
X25741Y28520D02*
X25941D01*
X26240Y28720D02*
X26340Y28820D01*
X26540D01*
X26640Y28720D01*
Y28320D01*
X26540Y28220D01*
X26340D01*
X26240Y28320D01*
Y28720D01*
X26840Y28220D02*
Y28320D01*
X26940D01*
Y28220D01*
X26840D01*
X27340Y28720D02*
X27440Y28820D01*
X27640D01*
X27740Y28720D01*
Y28320D01*
X27640Y28220D01*
X27440D01*
X27340Y28320D01*
Y28720D01*
X27940D02*
X28040Y28820D01*
X28240D01*
X28340Y28720D01*
Y28320D01*
X28240Y28220D01*
X28040D01*
X27940Y28320D01*
Y28720D01*
X28540Y28220D02*
Y28620D01*
X28640D01*
X28740Y28520D01*
Y28220D01*
Y28520D01*
X28840Y28620D01*
X28940Y28520D01*
Y28220D01*
X29140D02*
X29339D01*
X29240D01*
Y28620D01*
X29140D01*
X29639Y28220D02*
X29839D01*
X29739D01*
Y28820D01*
X29639D01*
X24430Y22841D02*
Y22441D01*
X24030Y22841D01*
X23930D01*
X23830Y22741D01*
Y22541D01*
X23930Y22441D01*
X23830Y23440D02*
Y23041D01*
X24130D01*
X24030Y23241D01*
Y23340D01*
X24130Y23440D01*
X24330D01*
X24430Y23340D01*
Y23141D01*
X24330Y23041D01*
X23930Y23640D02*
X23830Y23740D01*
Y23940D01*
X23930Y24040D01*
X24330D01*
X24430Y23940D01*
Y23740D01*
X24330Y23640D01*
X23930D01*
X24430Y24240D02*
X24330D01*
Y24340D01*
X24430D01*
Y24240D01*
X23930Y24740D02*
X23830Y24840D01*
Y25040D01*
X23930Y25140D01*
X24330D01*
X24430Y25040D01*
Y24840D01*
X24330Y24740D01*
X23930D01*
Y25340D02*
X23830Y25440D01*
Y25640D01*
X23930Y25740D01*
X24330D01*
X24430Y25640D01*
Y25440D01*
X24330Y25340D01*
X23930D01*
X24430Y25940D02*
X24030D01*
Y26040D01*
X24130Y26140D01*
X24430D01*
X24130D01*
X24030Y26240D01*
X24130Y26340D01*
X24430D01*
Y26539D02*
Y26739D01*
Y26639D01*
X24030D01*
Y26539D01*
X24430Y27039D02*
Y27239D01*
Y27139D01*
X23830D01*
Y27039D01*
X25041Y20390D02*
X25241D01*
X25141D01*
Y20990D01*
X25041Y20890D01*
X25541Y20390D02*
Y20490D01*
X25641D01*
Y20390D01*
X25541D01*
X26440Y20990D02*
X26040D01*
Y20690D01*
X26240Y20790D01*
X26340D01*
X26440Y20690D01*
Y20490D01*
X26340Y20390D01*
X26140D01*
X26040Y20490D01*
X27040Y20990D02*
X26640D01*
Y20690D01*
X26840Y20790D01*
X26940D01*
X27040Y20690D01*
Y20490D01*
X26940Y20390D01*
X26740D01*
X26640Y20490D01*
X28040Y20390D02*
X27840Y20590D01*
Y20790D01*
X28040Y20990D01*
X28340Y20390D02*
X28540D01*
X28440D01*
Y20790D01*
X28340D01*
X28840Y20390D02*
Y20790D01*
X29139D01*
X29239Y20690D01*
Y20390D01*
X29439D02*
X29639Y20590D01*
Y20790D01*
X29439Y20990D01*
X18410Y30466D02*
Y30666D01*
Y30566D01*
X17810D01*
X17910Y30466D01*
X18410Y30966D02*
X18310D01*
Y31066D01*
X18410D01*
Y30966D01*
X17910Y31465D02*
X17810Y31565D01*
Y31765D01*
X17910Y31865D01*
X18010D01*
X18110Y31765D01*
X18210Y31865D01*
X18310D01*
X18410Y31765D01*
Y31565D01*
X18310Y31465D01*
X18210D01*
X18110Y31565D01*
X18010Y31465D01*
X17910D01*
X18110Y31565D02*
Y31765D01*
X18410Y32365D02*
X17810D01*
X18110Y32065D01*
Y32465D01*
X18410Y33465D02*
X18210Y33265D01*
X18010D01*
X17810Y33465D01*
X18410Y33765D02*
Y33965D01*
Y33865D01*
X18010D01*
Y33765D01*
X18410Y34265D02*
X18010D01*
Y34564D01*
X18110Y34664D01*
X18410D01*
Y34864D02*
X18210Y35064D01*
X18010D01*
X17810Y34864D01*
M02*
