G04*
G04 #@! TF.GenerationSoftware,Altium Limited,Altium Designer,20.1.10 (176)*
G04*
G04 Layer_Physical_Order=1*
G04 Layer_Color=255*
%FSLAX24Y24*%
%MOIN*%
G70*
G04*
G04 #@! TF.SameCoordinates,434D76CE-413E-4709-B596-876F764042CA*
G04*
G04*
G04 #@! TF.FilePolarity,Positive*
G04*
G01*
G75*
%ADD10C,0.0100*%
G04:AMPARAMS|DCode=17|XSize=72.5mil|YSize=19.5mil|CornerRadius=9.7mil|HoleSize=0mil|Usage=FLASHONLY|Rotation=0.000|XOffset=0mil|YOffset=0mil|HoleType=Round|Shape=RoundedRectangle|*
%AMROUNDEDRECTD17*
21,1,0.0725,0.0000,0,0,0.0*
21,1,0.0530,0.0195,0,0,0.0*
1,1,0.0195,0.0265,0.0000*
1,1,0.0195,-0.0265,0.0000*
1,1,0.0195,-0.0265,0.0000*
1,1,0.0195,0.0265,0.0000*
%
%ADD17ROUNDEDRECTD17*%
%ADD18R,0.0725X0.0195*%
%ADD25R,0.0600X0.0400*%
%ADD26R,0.0890X0.0850*%
%ADD27R,0.0400X0.0600*%
%ADD28C,0.1840*%
%ADD29C,0.2400*%
%ADD30C,0.0945*%
%ADD31R,0.0945X0.0945*%
%ADD32R,0.0502X0.0502*%
%ADD33C,0.0502*%
%ADD34C,0.0500*%
D10*
X22150Y36250D02*
X23950Y34450D01*
X22150Y36250D02*
Y38600D01*
X22850Y39300D01*
X25301D01*
X30882Y30228D02*
X31250D01*
X27922Y33128D02*
X31150D01*
X28400Y40800D02*
X29680D01*
X34000Y36480D01*
X29984Y38800D02*
X31200D01*
X33150Y36850D01*
X27950Y40350D02*
X28400Y40800D01*
X28830Y37985D02*
X28850D01*
X27950Y38866D02*
X28830Y37985D01*
X27950Y38866D02*
Y40350D01*
X29203Y36550D02*
X30750D01*
X30800Y36500D01*
X31550Y37250D01*
X32150D01*
X31950Y35750D02*
X33150D01*
X26630Y37971D02*
X26650D01*
X25301Y39300D02*
X26630Y37971D01*
X33713Y30375D02*
Y36087D01*
X33150Y36550D02*
X33250D01*
X33713Y36087D01*
X33150Y36550D02*
Y36850D01*
X28850Y39915D02*
X28870D01*
X29984Y38800D01*
X30961Y32616D02*
X31150D01*
X30917Y32572D02*
X30961Y32616D01*
X26650Y34400D02*
X27922Y33128D01*
X23950Y36450D02*
X27819D01*
X30885Y33384D02*
X31150D01*
X27819Y36450D02*
X30885Y33384D01*
X27045Y38708D02*
X29203Y36550D01*
X27045Y38708D02*
Y39525D01*
X26670Y39900D02*
X27045Y39525D01*
X26650Y39900D02*
X26670D01*
X31050Y35700D02*
X31900D01*
X31200Y34350D02*
X32050D01*
X32250Y35050D02*
X32850Y34450D01*
X29800Y35050D02*
X32250D01*
X23950Y38450D02*
X25481Y36919D01*
X27931D01*
X29800Y35050D01*
X33057Y32307D02*
X33156D01*
X33363Y32514D02*
Y33230D01*
X32850Y32100D02*
X33057Y32307D01*
X33218Y33375D02*
X33363Y33230D01*
X32859Y33375D02*
X33218D01*
X32850Y31650D02*
Y32100D01*
Y33384D02*
X32859Y33375D01*
X32850Y31650D02*
X32850Y31650D01*
X33156Y32307D02*
X33363Y32514D01*
X32050Y33314D02*
Y34350D01*
Y33314D02*
X32483Y32881D01*
X32842D01*
X32850Y32872D01*
Y33384D02*
Y34450D01*
X32850Y30528D02*
Y31650D01*
Y30528D02*
X32894Y30484D01*
X32950D01*
X32050Y31250D02*
Y31650D01*
X32050Y31250D02*
X32050Y31250D01*
X32050Y30514D02*
Y31250D01*
Y30514D02*
X32583Y29981D01*
X32942D02*
X32950Y29972D01*
X32583Y29981D02*
X32942D01*
X26600Y30900D02*
X27272Y30228D01*
X30882D01*
X30637Y32975D02*
X30782Y33119D01*
X30985Y30484D02*
X31250D01*
X28869Y32600D02*
X30985Y30484D01*
X24100Y32600D02*
X28869D01*
X23950Y32450D02*
X24100Y32600D01*
X26600Y34450D02*
X26650Y34400D01*
X32950Y29716D02*
X32959Y29725D01*
X33345D01*
X34000Y30380D01*
Y36480D01*
X33318Y29981D02*
X33713Y30375D01*
X31150Y32616D02*
X32850D01*
X31250Y29716D02*
X32950D01*
X30637Y32770D02*
Y32975D01*
Y32770D02*
X30782Y32625D01*
X31241Y30219D02*
X31250Y30228D01*
X30882Y30219D02*
X31241D01*
X30737Y30075D02*
X30882Y30219D01*
X30737Y29870D02*
Y30075D01*
Y29870D02*
X30882Y29725D01*
X31241D01*
X31250Y29716D01*
D17*
X32850Y33384D02*
D03*
Y33128D02*
D03*
Y32872D02*
D03*
Y32616D02*
D03*
X31150D02*
D03*
Y32872D02*
D03*
Y33128D02*
D03*
X32950Y30484D02*
D03*
Y30228D02*
D03*
Y29972D02*
D03*
Y29716D02*
D03*
X31250D02*
D03*
Y29972D02*
D03*
Y30228D02*
D03*
D18*
X31150Y33384D02*
D03*
X31250Y30484D02*
D03*
D25*
X33150Y35750D02*
D03*
Y36550D02*
D03*
X30750Y35750D02*
D03*
Y36550D02*
D03*
D26*
X28850Y37985D02*
D03*
Y39915D02*
D03*
X26650Y37971D02*
D03*
Y39900D02*
D03*
D27*
X32050Y34350D02*
D03*
X32850D02*
D03*
X32050Y31650D02*
D03*
X32850D02*
D03*
D28*
X23950Y34450D02*
X26600D01*
X23950Y30450D02*
X26150D01*
X26600Y30900D01*
D29*
X27500Y26250D02*
D03*
D30*
X23950Y40450D02*
D03*
Y38450D02*
D03*
Y36450D02*
D03*
Y34450D02*
D03*
Y32450D02*
D03*
D31*
Y30450D02*
D03*
D32*
X26650Y34400D02*
D03*
X26600Y30900D02*
D03*
D33*
X28028Y34400D02*
D03*
X27978Y30900D02*
D03*
D34*
X31950Y35750D02*
D03*
X32150Y37250D02*
D03*
X31200Y34350D02*
D03*
M02*
